<svg width="20" height="18" viewBox="0 0 20 18" fill="none" xmlns="http://www.w3.org/2000/svg">
<path d="M20 9.06007C19.9974 8.63151 19.8692 8.21312 19.6314 7.85662C19.3935 7.50011 19.0564 7.2211 18.6617 7.05408C18.2671 6.88706 17.8321 6.83934 17.4106 6.91683C16.9891 6.99431 16.5995 7.1936 16.29 7.49007C14.5559 6.31877 12.5221 5.66974 10.43 5.62007L11.43 0.920071L14.7 1.63007C14.7167 2.01008 14.8714 2.37096 15.1352 2.645C15.399 2.91905 15.7537 3.08742 16.1328 3.11852C16.5119 3.14963 16.8893 3.04134 17.1943 2.81396C17.4992 2.58659 17.7107 2.25576 17.789 1.88354C17.8674 1.51133 17.8072 1.12331 17.6199 0.792294C17.4325 0.461274 17.1308 0.210003 16.7713 0.0856238C16.4118 -0.0387553 16.0193 -0.0276942 15.6675 0.116732C15.3156 0.261158 15.0285 0.529024 14.86 0.870071L11.22 0.100071C11.1702 0.0884716 11.1185 0.0878297 11.0684 0.0981894C11.0184 0.108549 10.9711 0.129663 10.93 0.160071C10.8849 0.187937 10.847 0.22596 10.8192 0.271103C10.7914 0.316247 10.7746 0.36726 10.77 0.420071L9.66004 5.64007C7.53826 5.66974 5.47094 6.31599 3.71004 7.50007C3.29648 7.119 2.75233 6.91136 2.19004 6.92007C1.69117 6.91508 1.20585 7.0823 0.815927 7.39352C0.426009 7.70474 0.155356 8.14092 0.0496205 8.62848C-0.0561151 9.11603 0.00953673 9.62514 0.235502 10.0699C0.461468 10.5147 0.833919 10.868 1.29003 11.0701C1.25314 11.2881 1.2364 11.509 1.24003 11.7301C1.24003 15.1001 5.16004 17.8501 10 17.8501C14.84 17.8501 18.76 15.1201 18.76 11.7301C18.7629 11.509 18.7462 11.2882 18.71 11.0701C19.0949 10.8937 19.4211 10.6105 19.6498 10.2542C19.8785 9.89793 20 9.48345 20 9.06007ZM5.00003 10.6201C4.99806 10.4163 5.03639 10.2142 5.11284 10.0254C5.18928 9.83652 5.30232 9.66465 5.44546 9.51965C5.58859 9.37466 5.75899 9.25941 5.94684 9.18054C6.1347 9.10166 6.3363 9.06072 6.54003 9.06007C6.7449 9.06007 6.94775 9.10042 7.13702 9.17882C7.32629 9.25722 7.49826 9.37212 7.64312 9.51698C7.78798 9.66184 7.90289 9.83382 7.98129 10.0231C8.05968 10.2124 8.10004 10.4152 8.10004 10.6201C8.10004 10.8249 8.05968 11.0278 7.98129 11.2171C7.90289 11.4063 7.78798 11.5783 7.64312 11.7232C7.49826 11.868 7.32629 11.9829 7.13702 12.0613C6.94775 12.1397 6.7449 12.1801 6.54003 12.1801C6.33584 12.181 6.13351 12.1412 5.94492 12.0629C5.75633 11.9846 5.58529 11.8694 5.44183 11.7241C5.29838 11.5787 5.1854 11.4062 5.10953 11.2167C5.03366 11.0271 4.99644 10.8242 5.00003 10.6201ZM13.71 14.7601C12.63 15.8401 10.59 15.9201 10 15.9201C9.39004 15.9201 7.35003 15.8201 6.29003 14.7601C6.21445 14.6845 6.17198 14.582 6.17198 14.4751C6.17198 14.3682 6.21445 14.2657 6.29003 14.1901C6.36562 14.1145 6.46814 14.072 6.57503 14.072C6.68193 14.072 6.78445 14.1145 6.86003 14.1901C7.77295 14.8413 8.88039 15.1622 10 15.1001C11.1198 15.1637 12.2278 14.8426 13.14 14.1901C13.1773 14.1523 13.2216 14.1223 13.2705 14.1018C13.3195 14.0813 13.372 14.0707 13.425 14.0707C13.4781 14.0707 13.5306 14.0813 13.5795 14.1018C13.6285 14.1223 13.6728 14.1523 13.71 14.1901C13.7779 14.2695 13.8151 14.3706 13.8151 14.4751C13.8151 14.5795 13.7779 14.6806 13.71 14.7601ZM13.42 12.2001C13.2152 12.2001 13.0123 12.1597 12.823 12.0813C12.6338 12.0029 12.4618 11.888 12.3169 11.7432C12.1721 11.5983 12.0572 11.4263 11.9788 11.2371C11.9004 11.0478 11.86 10.8449 11.86 10.6401C11.86 10.4352 11.9004 10.2324 11.9788 10.0431C12.0572 9.85382 12.1721 9.68184 12.3169 9.53698C12.4618 9.39213 12.6338 9.27722 12.823 9.19882C13.0123 9.12042 13.2152 9.08007 13.42 9.08007C13.8338 9.08007 14.2306 9.24443 14.5231 9.53698C14.8157 9.82954 14.98 10.2263 14.98 10.6401C14.98 11.0538 14.8157 11.4506 14.5231 11.7432C14.2306 12.0357 13.8338 12.2001 13.42 12.2001Z" fill="white"/>
</svg>
