<svg width="21" height="17" viewBox="0 0 21 17" fill="none" xmlns="http://www.w3.org/2000/svg">
<path d="M20.92 1.99998C20.1391 2.35164 19.3099 2.58422 18.46 2.68998C19.3549 2.15133 20.0232 1.30533 20.34 0.309985C19.4994 0.811525 18.5796 1.16658 17.62 1.35998C17.2181 0.924328 16.7291 0.578098 16.1847 0.343792C15.6403 0.109485 15.0526 -0.00765435 14.46 -1.5235e-05C13.3253 0.00395618 12.2385 0.457849 11.438 1.26209C10.6375 2.06634 10.1887 3.15526 10.19 4.28998C10.1903 4.61971 10.2272 4.94839 10.3 5.26999C8.59501 5.18365 6.92714 4.74027 5.40435 3.96854C3.88156 3.19681 2.53779 2.11393 1.46 0.789985C0.911704 1.73186 0.74402 2.84764 0.991252 3.90906C1.23848 4.97049 1.88195 5.89733 2.79 6.49998C2.1093 6.49216 1.44048 6.32067 0.84 5.99998V6.02998C0.839401 7.02093 1.18164 7.98157 1.80864 8.74892C2.43565 9.51627 3.30881 10.0431 4.28 10.24C3.6508 10.4127 2.99005 10.4367 2.35 10.31C2.62161 11.1625 3.15354 11.9084 3.87102 12.4429C4.5885 12.9774 5.45545 13.2737 6.35 13.29C4.83363 14.4904 2.954 15.1393 1.02 15.13C0.67912 15.1299 0.338535 15.1099 0 15.07C1.96239 16.3321 4.24681 17.0021 6.58 17C8.18618 17.0098 9.77834 16.7007 11.2642 16.0906C12.75 15.4804 14.0999 14.5814 15.2357 13.4457C16.3714 12.3099 17.2705 10.96 17.8806 9.47415C18.4907 7.98833 18.7998 6.39617 18.79 4.78998C18.79 4.59998 18.79 4.41998 18.78 4.22998C19.6226 3.62245 20.3477 2.86684 20.92 1.99998Z" fill="white"/>
</svg>
